<?xml version="1.0" encoding="UTF-8" standalone="no"?>
<!-- Created with Inkscape (http://www.inkscape.org/) -->

<svg
   xmlns:dc="http://purl.org/dc/elements/1.1/"
   xmlns:cc="http://creativecommons.org/ns#"
   xmlns:rdf="http://www.w3.org/1999/02/22-rdf-syntax-ns#"
   xmlns:svg="http://www.w3.org/2000/svg"
   xmlns="http://www.w3.org/2000/svg"
   xmlns:sodipodi="http://sodipodi.sourceforge.net/DTD/sodipodi-0.dtd"
   xmlns:inkscape="http://www.inkscape.org/namespaces/inkscape"
   width="600"
   height="600"
   viewBox="0 0 600 600"
   version="1.1"
   id="svg8"
   inkscape:version="0.92.0 r"
   sodipodi:docname="logo.svg">
  <defs
     id="defs2" />
  <sodipodi:namedview
     id="base"
     pagecolor="#ffffff"
     bordercolor="#666666"
     borderopacity="1.0"
     inkscape:pageopacity="0.0"
     inkscape:pageshadow="2"
     inkscape:zoom="0.35355339"
     inkscape:cx="709.04252"
     inkscape:cy="-89.037728"
     inkscape:document-units="px"
     inkscape:current-layer="g5615"
     showgrid="false"
     units="px"
     inkscape:window-width="1254"
     inkscape:window-height="744"
     inkscape:window-x="12"
     inkscape:window-y="18"
     inkscape:window-maximized="0" />
  <metadata
     id="metadata5">
    <rdf:RDF>
      <cc:Work
         rdf:about="">
        <dc:format>image/svg+xml</dc:format>
        <dc:type
           rdf:resource="http://purl.org/dc/dcmitype/StillImage" />
        <dc:title></dc:title>
      </cc:Work>
    </rdf:RDF>
  </metadata>
  <g
     inkscape:label="Layer 1"
     inkscape:groupmode="layer"
     id="layer1"
     transform="translate(0,-138.24999)">
    <g
       id="g5615"
       transform="matrix(0.35156249,0,0,0.35156249,0,478.709)">
      <path
         style="fill:#c69a5a;stroke-width:0.46875"
         d="M 305.37695 25.308594 L 300.20508 25.3125 L 298.4668 28.828125 C 297.51003 30.761719 296.46109 32.334131 296.13672 32.322266 C 295.81234 32.310383 294.31604 30.728366 292.8125 28.806641 C 291.30896 26.884912 289.93787 25.315914 289.76562 25.320312 C 287.76188 25.371493 251.69616 29.958411 251.28125 30.214844 C 250.97118 30.40648 250.85593 30.910842 251.02539 31.335938 C 251.32848 32.096241 255 55.424365 255 56.589844 C 255 57.630704 254.32789 57.254893 251.46289 54.609375 C 249.92738 53.191506 248.35547 52.032685 247.96875 52.035156 C 246.55673 52.044156 225.89564 57.041866 225.45703 57.480469 C 225.20842 57.729087 224.77673 59.611347 224.49805 61.662109 L 223.99023 65.390625 L 228.9707 72.859375 C 232.52879 78.195039 233.7786 80.419802 233.34375 80.648438 C 233.00898 80.824458 231.05664 81.102913 229.00586 81.267578 C 226.95508 81.432243 225.07374 81.770017 224.82422 82.019531 C 224.53183 82.311919 224.64786 83.019555 225.15234 84.009766 C 225.58286 84.854781 228.57705 94.243787 231.80664 104.87305 C 237.44217 123.4208 238.14567 126.5625 236.6543 126.5625 C 236.15689 126.5625 221.72225 115.83308 219.60938 113.89258 C 218.34808 112.73418 217.76827 112.57677 213.98438 112.36719 C 208.78148 112.079 194.12544 113.98819 193.32617 115.05859 C 193.04992 115.42855 192.58092 118.72563 192.2832 122.38477 L 191.74023 129.03711 L 193.48828 130.74414 C 197.33939 134.50755 209.29688 147.77396 209.29688 148.2832 C 209.29688 148.60867 208.35526 148.8727 206.95312 148.93945 C 201.06507 149.21974 198.75 149.60263 198.75 150.29688 C 198.75 150.67722 199.63811 152.29539 200.72461 153.89258 C 201.81111 155.48976 206.44158 163.41694 211.01367 171.50781 C 217.39315 182.7971 219.27772 186.50384 219.11719 187.44531 C 219.00214 188.12007 218.48481 191.93294 217.9668 195.91797 C 217.44878 199.903 216.86732 203.31678 216.67578 203.50586 C 216.2481 203.92807 192.62713 191.68963 191.29102 190.35352 C 190.76335 189.82585 188.43364 188.44074 186.11328 187.27539 L 181.89453 185.15625 L 173.24023 185.15625 C 166.97167 185.15625 164.49047 185.31341 164.23633 185.72461 C 163.89391 186.27866 163.22292 206.36296 163.5 207.76367 C 163.57683 208.15208 164.04863 208.65558 164.54883 208.88281 C 165.90428 209.49857 197.78805 233.14791 197.80078 233.54688 C 197.80679 233.73557 192.8052 233.94651 186.68555 234.01562 C 177.23315 234.12239 175.53909 234.24643 175.42773 234.84375 C 175.35564 235.23047 179.37283 241.76953 184.35547 249.375 C 191.02617 259.55711 193.77825 263.37699 194.79297 263.86523 C 196.44133 264.65838 203.31241 269.41923 203.68945 270.0293 C 204.18657 270.83364 204.09533 284.70325 203.5918 284.87109 C 202.877 285.10936 162.15885 273.88819 160.69922 273.05078 C 159.23535 272.21095 142.64492 269.03676 141.67188 269.41016 C 141.11464 269.62399 141.06464 271.85457 141.34961 283.77734 C 141.7691 301.32834 141.84226 301.92897 143.59766 302.39844 C 146.42451 303.15445 205.3125 330.17945 205.3125 330.7207 C 205.3125 331.18834 200.11205 335.4279 197.95312 336.7207 C 197.64408 336.90576 196.48393 336.84173 195.375 336.58008 C 192.11997 335.81206 158.32027 333.21098 157.83984 333.69141 C 157.29131 334.23994 157.03241 333.76193 166.98828 350.53125 C 171.62626 358.34329 175.33727 364.81898 175.23633 364.91992 C 174.94444 365.21181 130.44338 364.26886 129.14648 363.94336 C 128.29729 363.73023 127.89439 363.86663 127.67383 364.44141 C 127.35359 365.27593 130.78872 406.18047 131.22852 406.76953 C 131.3692 406.95797 145.68484 409.95962 163.04102 413.43945 C 180.39719 416.91929 194.84641 419.93375 195.15039 420.13867 C 195.53375 420.39711 195.27229 420.8688 194.29688 421.67969 C 192.70933 422.99946 151.15326 442.4691 149.88281 442.48828 C 148.38092 442.51096 149.00146 444.3813 152.57812 450.62109 C 154.51119 453.9935 155.93502 456.88427 155.74219 457.04688 C 155.40891 457.32791 130.09503 464.21082 127.38281 464.75781 C 126.51714 464.9324 126.09375 465.31269 126.09375 465.91406 C 126.09375 467.43544 134.03141 518.94581 134.34375 519.45117 C 134.52558 519.74541 135.82689 519.81534 137.75 519.63281 C 142.98905 519.13561 203.18028 517.53444 203.5332 517.88281 C 203.71519 518.06249 203.68817 521.37064 203.47266 525.23633 C 203.25714 529.10197 203.21452 532.49475 203.37695 532.77539 C 203.86607 533.62045 256.1391 581.24206 256.58203 581.24609 C 256.80761 581.24609 270.51855 574.16725 287.05078 565.50977 C 303.58301 556.85228 317.74219 549.17244 318.51562 548.44531 C 320.70322 546.38881 329.51761 540.97955 331.13086 540.70312 C 331.92718 540.56672 338.58984 539.72564 345.9375 538.83398 L 359.29688 537.21289 L 369.14062 539.59961 C 374.55469 540.91174 379.61719 542.36319 380.39062 542.82617 C 381.61343 543.55808 388.47294 546.30591 424.80664 560.625 C 431.33625 563.1983 431.77229 563.308 432.62891 562.57422 C 433.78477 561.58408 468.28476 509.19706 468.27344 508.44922 C 468.26887 508.14242 467.37232 507.15801 466.28125 506.26172 C 462.77874 503.3843 426.34051 471.38837 425.98828 470.88086 C 425.80143 470.61166 426.01255 470.25191 426.45703 470.08203 C 427.2143 469.79263 472.743 467.76319 481.35938 467.63477 C 484.82916 467.58305 485.34161 467.46389 485.66797 466.63867 C 486.38786 464.8183 494.62333 419.51006 494.35938 418.82227 C 494.21211 418.43838 493.6116 418.1338 493.02344 418.14453 C 492.43527 418.15525 483.45251 416.73143 473.0625 414.98047 C 457.15546 412.29977 454.20091 411.68247 454.36133 411.06836 C 454.46613 410.66724 456.916 406.802 459.80469 402.48047 C 462.69337 398.15893 464.98932 394.26953 464.90625 393.83594 C 464.79586 393.25985 464.06145 392.96389 462.18164 392.73828 C 457.62145 392.19098 427.83175 385.37906 427.24805 384.75 C 426.93751 384.41534 426.09507 382.56898 425.375 380.64844 C 424.65496 378.72789 423.57307 376.70082 422.9707 376.14258 C 421.99051 375.23416 421.5021 374.0625 422.10352 374.0625 C 422.22902 374.0625 435.45435 370.16016 451.49414 365.39062 C 467.5339 360.62109 481.02427 356.71875 481.47266 356.71875 C 481.92107 356.71875 482.4158 356.51368 482.57031 356.26367 C 482.90433 355.7232 487.5 322.03095 487.5 320.12305 C 487.5 319.39792 487.29125 318.67661 487.03711 318.51953 C 486.78296 318.36246 483.98805 318.76036 480.82617 319.4043 C 477.66432 320.04823 464.95312 322.06454 452.57812 323.88477 C 440.20313 325.70499 429.53291 327.30742 428.86719 327.44531 C 427.93727 327.63794 426.97991 327.19799 424.73438 325.54492 C 423.12682 324.36152 421.89418 323.14007 421.99609 322.83008 C 422.26068 322.02511 425.66572 320.17321 426.89844 320.16406 C 428.12933 320.15492 428.1025 320.18843 441.73438 300.8457 C 447.31128 292.93242 451.875 286.09721 451.875 285.65625 C 451.875 284.90763 450.64042 284.87705 433.24219 285.1875 C 417.27401 285.47243 414.70992 285.42673 415.3125 284.86523 C 416.03282 284.194 461.76228 257.80348 465.34375 255.99219 C 466.57404 255.36997 467.41209 254.58972 467.54688 253.93945 C 467.86191 252.41938 469.69559 231.18127 469.69141 229.10156 L 469.6875 227.34375 L 467.22656 227.3457 C 465.87305 227.34676 461.39061 227.5606 457.26562 227.82031 C 450.41487 228.25163 449.54248 228.40852 447.1875 229.63477 C 445.76954 230.37311 436.43096 234.08203 426.43555 237.87891 L 408.26172 244.7832 L 404.99023 242.83984 C 403.19073 241.77055 401.71875 240.76021 401.71875 240.5957 C 401.71875 240.4312 403.19302 237.62211 404.99414 234.35352 C 407.22783 230.30001 408.47167 227.43996 408.9082 225.35742 C 409.47172 222.66914 410.24195 221.30335 415.34375 213.92578 C 418.5307 209.31724 423.44536 202.4896 426.26562 198.75195 C 429.08593 195.01431 431.41428 191.6393 431.43945 191.25195 C 431.48923 190.48557 428.21454 190.00257 422.25391 189.89844 C 420.52889 189.86831 419.02563 189.68555 418.91211 189.49219 C 418.6618 189.0657 441.30128 168.65573 442.55273 168.17969 C 443.11031 167.9676 443.4375 167.38705 443.4375 166.60938 C 443.4375 165.93085 443.6697 161.78935 443.95312 157.40625 C 444.24109 152.95232 444.28998 149.25872 444.06445 149.0332 C 443.84251 148.81127 439.60748 148.30157 434.65234 147.90039 L 425.64258 147.16992 L 420.38281 148.35742 C 417.28382 149.05697 414.72976 149.90632 414.16406 150.42383 C 412.58175 151.87125 394.67059 163.125 393.94922 163.125 C 393.41302 163.125 393.28125 162.13296 393.28125 158.08203 L 393.28125 153.03906 L 399.60352 134.99609 C 403.08047 125.07257 406.27008 116.27885 406.69336 115.45508 C 407.8725 113.16015 407.34767 112.5 404.33984 112.5 C 402.92899 112.5 401.64767 112.29722 401.49414 112.04883 C 401.22527 111.61374 409.74956 100.21454 412.5957 97.203125 C 413.96986 95.749207 413.98572 95.672694 414.0625 89.9375 L 414.14062 84.140625 L 406.875 82.876953 C 402.87889 82.182491 396.80606 81.35608 393.38086 81.039062 L 387.1543 80.462891 L 385.17773 82.333984 C 381.32475 85.985945 376.33226 90.009415 375.94727 89.771484 C 375.7325 89.638745 375.63865 89.161859 375.73828 88.710938 C 376.69211 84.393645 381.97609 53.259031 381.80273 52.978516 C 381.67747 52.775857 380.20086 52.463048 378.52148 52.283203 C 376.84214 52.103358 375.46875 51.833257 375.46875 51.683594 C 375.46875 51.152724 380.29271 42.398029 381.41016 40.900391 C 382.37794 39.603396 382.5233 38.946186 382.4043 36.447266 L 382.26562 33.515625 L 371.01562 30.626953 C 364.82813 29.038147 359.27923 27.719787 358.68555 27.697266 C 357.93929 27.668965 356.80463 28.523901 355.00586 30.466797 C 353.57486 32.012434 352.22374 33.165158 352.00391 33.029297 C 351.78407 32.893436 351.35652 31.526413 351.05469 29.992188 C 350.75285 28.457965 350.27007 27.01258 349.98047 26.779297 C 349.48551 26.380593 316.66823 25.298746 305.37695 25.308594 z "
         transform="matrix(2.8444445,0,0,2.8444445,0,-968.41677)"
         id="path5621" />
      <path
         style="fill:#341601;stroke-width:0.46875"
         d="M 305.375 25.308594 L 300.20508 25.3125 L 298.46484 28.828125 C 297.5081 30.761684 296.46111 32.334113 296.13672 32.322266 C 295.81237 32.310313 294.31603 30.728352 292.8125 28.806641 C 291.30894 26.884895 289.93786 25.315918 289.76562 25.320312 C 287.76186 25.3715 251.69616 29.958414 251.28125 30.214844 C 250.97117 30.40648 250.85594 30.910863 251.02539 31.335938 C 251.329 32.096016 255 55.424379 255 56.589844 C 255 57.630715 254.32788 57.254883 251.46289 54.609375 C 249.92737 53.191523 248.35547 52.034613 247.96875 52.037109 C 246.55673 52.04625 225.89561 57.041895 225.45703 57.480469 C 225.20841 57.729094 224.77673 59.61134 224.49805 61.662109 L 223.99023 65.390625 L 228.9707 72.859375 C 232.5288 78.195039 233.7786 80.419816 233.34375 80.648438 C 233.00896 80.824465 231.05663 81.102906 229.00586 81.267578 C 226.95509 81.432215 225.07376 81.770027 224.82422 82.019531 C 224.53182 82.311926 224.64785 83.019555 225.15234 84.009766 C 225.58287 84.854781 228.57705 94.243801 231.80664 104.87305 C 237.44219 123.42082 238.14566 126.5625 236.6543 126.5625 C 236.15691 126.5625 221.72227 115.83306 219.60938 113.89258 C 218.34807 112.73418 217.76828 112.57679 213.98438 112.36719 C 208.78146 112.07901 194.12541 113.98819 193.32617 115.05859 C 193.04991 115.42854 192.58091 118.72563 192.2832 122.38477 L 191.74023 129.03711 L 193.48828 130.74414 C 197.3394 134.50755 209.29688 147.77396 209.29688 148.2832 C 209.29688 148.60868 208.35526 148.87269 206.95312 148.93945 C 201.06509 149.21972 198.75 149.60261 198.75 150.29688 C 198.75 150.67723 199.63811 152.29539 200.72461 153.89258 C 201.81111 155.48976 206.44157 163.41696 211.01367 171.50781 C 217.39316 182.7971 219.27775 186.50383 219.11719 187.44531 C 219.00212 188.12006 218.48479 191.93294 217.9668 195.91797 C 217.44877 199.90299 216.86731 203.31678 216.67578 203.50586 C 216.24811 203.92807 192.62713 191.68963 191.29102 190.35352 C 190.76336 189.82586 188.43363 188.44074 186.11328 187.27539 L 181.89453 185.15625 L 173.24023 185.15625 C 166.97168 185.15625 164.49047 185.31341 164.23633 185.72461 C 163.89391 186.27866 163.22292 206.36296 163.5 207.76367 C 163.5768 208.15208 164.04863 208.65752 164.54883 208.88477 C 165.90429 209.50051 197.78802 233.14791 197.80078 233.54688 C 197.80676 233.73558 192.8052 233.94651 186.68555 234.01562 C 177.23315 234.12239 175.5391 234.24643 175.42773 234.84375 C 175.35564 235.23047 179.37283 241.76953 184.35547 249.375 C 191.02616 259.55711 193.77825 263.37895 194.79297 263.86719 C 196.44134 264.66034 203.31244 269.41923 203.68945 270.0293 C 204.18656 270.83365 204.09537 284.70324 203.5918 284.87109 C 202.877 285.10935 162.15886 273.89013 160.69922 273.05273 C 159.23536 272.2129 142.64492 269.03677 141.67188 269.41016 C 141.11463 269.624 141.06464 271.85457 141.34961 283.77734 C 141.7691 301.32833 141.84226 301.92898 143.59766 302.39844 C 146.42451 303.15446 205.3125 330.17945 205.3125 330.7207 C 205.3125 331.18834 200.11207 335.4279 197.95312 336.7207 C 197.6441 336.90576 196.48393 336.84368 195.375 336.58203 C 192.11999 335.81401 158.32027 333.21098 157.83984 333.69141 C 157.29131 334.23994 157.03241 333.7619 166.98828 350.53125 C 171.62625 358.34329 175.33727 364.81897 175.23633 364.91992 C 174.94444 365.21181 130.44338 364.26886 129.14648 363.94336 C 128.29729 363.73023 127.8944 363.86665 127.67383 364.44141 C 127.3536 365.27593 130.78871 406.18047 131.22852 406.76953 C 131.3692 406.95797 145.68483 409.95962 163.04102 413.43945 C 180.3972 416.91928 194.84643 419.93374 195.15039 420.13867 C 195.53377 420.39711 195.27229 420.8688 194.29688 421.67969 C 192.70932 422.99947 151.15326 442.4691 149.88281 442.48828 C 148.38092 442.51099 149.00145 444.3813 152.57812 450.62109 C 154.51118 453.9935 155.93307 456.88427 155.74023 457.04688 C 155.40696 457.32792 130.09503 464.21082 127.38281 464.75781 C 126.51713 464.9324 126.09375 465.31269 126.09375 465.91406 C 126.09375 467.43544 134.03141 518.94776 134.34375 519.45312 C 134.52558 519.74735 135.82494 519.81535 137.74805 519.63281 C 142.98709 519.13561 203.18027 517.53444 203.5332 517.88281 C 203.71517 518.06249 203.6882 521.37064 203.47266 525.23633 C 203.25715 529.10197 203.21453 532.49474 203.37695 532.77539 C 203.86608 533.62045 256.1391 581.24206 256.58203 581.24609 C 256.80759 581.24609 270.51856 574.16726 287.05078 565.50977 C 303.58301 556.85229 317.74219 549.17244 318.51562 548.44531 C 320.70322 546.38881 329.51761 540.97956 331.13086 540.70312 C 331.92718 540.56672 338.58984 539.72565 345.9375 538.83398 L 359.29688 537.21289 L 369.14062 539.59961 C 374.55469 540.91174 379.61719 542.36319 380.39062 542.82617 C 381.61343 543.55808 388.47294 546.30591 424.80664 560.625 C 431.33625 563.1983 431.77229 563.308 432.62891 562.57422 C 433.78477 561.58408 468.28476 509.19707 468.27344 508.44922 C 468.26852 508.14242 467.37232 507.15802 466.28125 506.26172 C 462.77874 503.3843 426.34051 471.38838 425.98828 470.88086 C 425.80143 470.61166 426.01255 470.25191 426.45703 470.08203 C 427.2143 469.79263 472.743 467.76318 481.35938 467.63477 C 484.82916 467.58306 485.34161 467.46389 485.66797 466.63867 C 486.38786 464.8183 494.62333 419.51006 494.35938 418.82227 C 494.21211 418.43838 493.6116 418.1338 493.02344 418.14453 C 492.43527 418.15522 483.45251 416.73143 473.0625 414.98047 C 457.15546 412.29977 454.20091 411.68246 454.36133 411.06836 C 454.46613 410.66723 456.916 406.802 459.80469 402.48047 C 462.69337 398.15893 464.98932 394.26952 464.90625 393.83594 C 464.79586 393.25985 464.06145 392.96389 462.18164 392.73828 C 457.62145 392.19097 427.83175 385.37906 427.24805 384.75 C 426.93751 384.41534 426.09507 382.56899 425.375 380.64844 C 424.65496 378.7279 423.57307 376.70082 422.9707 376.14258 C 421.99051 375.23416 421.5021 374.0625 422.10352 374.0625 C 422.22902 374.0625 435.45435 370.16015 451.49414 365.39062 C 467.5339 360.62109 481.02427 356.71875 481.47266 356.71875 C 481.92107 356.71875 482.4158 356.51368 482.57031 356.26367 C 482.90433 355.7232 487.5 322.03094 487.5 320.12305 C 487.5 319.39792 487.29125 318.67661 487.03711 318.51953 C 486.78296 318.36246 483.98805 318.76037 480.82617 319.4043 C 477.66432 320.04824 464.95312 322.06454 452.57812 323.88477 C 440.20313 325.70499 429.53291 327.30741 428.86719 327.44531 C 427.93727 327.63793 426.97991 327.19799 424.73438 325.54492 C 423.12682 324.36152 421.89418 323.14007 421.99609 322.83008 C 422.26068 322.02511 425.66572 320.1732 426.89844 320.16406 C 428.12933 320.15506 428.1025 320.18849 441.73438 300.8457 C 447.31128 292.93242 451.875 286.09721 451.875 285.65625 C 451.875 284.90763 450.64042 284.87705 433.24219 285.1875 C 417.27401 285.47243 414.70992 285.42673 415.3125 284.86523 C 416.03282 284.194 461.76228 257.80348 465.34375 255.99219 C 466.57404 255.36997 467.41209 254.58971 467.54688 253.93945 C 467.86191 252.41937 469.69559 231.18127 469.69141 229.10156 L 469.6875 227.34375 L 467.22656 227.3457 C 465.87305 227.34676 461.39061 227.5606 457.26562 227.82031 C 450.41487 228.25163 449.54248 228.40852 447.1875 229.63477 C 445.76954 230.3731 436.43096 234.08398 426.43555 237.88086 L 408.26172 244.7832 L 404.99023 242.83984 C 403.19073 241.77055 401.71875 240.76217 401.71875 240.59766 C 401.71875 240.43316 403.19302 237.62406 404.99414 234.35547 C 407.22783 230.30197 408.47167 227.44192 408.9082 225.35938 C 409.47172 222.6711 410.23999 221.30335 415.3418 213.92578 C 418.52875 209.31724 423.44536 202.4896 426.26562 198.75195 C 429.08593 195.01432 431.41233 191.6393 431.4375 191.25195 C 431.48732 190.48556 428.21454 190.00257 422.25391 189.89844 C 420.52889 189.86834 419.02368 189.68555 418.91016 189.49219 C 418.65984 189.0657 441.30128 168.65573 442.55273 168.17969 C 443.11031 167.9676 443.4375 167.38705 443.4375 166.60938 C 443.4375 165.93085 443.6697 161.78936 443.95312 157.40625 C 444.24109 152.9523 444.28998 149.2587 444.06445 149.0332 C 443.84251 148.81126 439.60552 148.30156 434.65039 147.90039 L 425.64258 147.17188 L 420.38281 148.35938 C 417.28382 149.05891 414.72781 149.90633 414.16211 150.42383 C 412.5798 151.87125 394.67059 163.125 393.94922 163.125 C 393.41302 163.125 393.28125 162.13295 393.28125 158.08203 L 393.28125 153.03906 L 399.60352 134.99609 C 403.08047 125.07257 406.27008 116.27886 406.69336 115.45508 C 407.8725 113.16015 407.34767 112.5 404.33984 112.5 C 402.92899 112.5 401.64767 112.29721 401.49414 112.04883 C 401.22527 111.61373 409.74956 100.21454 412.5957 97.203125 C 413.96986 95.749238 413.98572 95.67268 414.0625 89.9375 L 414.14062 84.140625 L 406.875 82.878906 C 402.87893 82.18443 396.8061 81.356066 393.38086 81.039062 L 387.1543 80.462891 L 385.17773 82.335938 C 381.32471 85.987898 376.3323 90.009422 375.94727 89.771484 C 375.7325 89.638734 375.63861 89.161852 375.73828 88.710938 C 376.69211 84.393645 381.97612 53.259027 381.80273 52.978516 C 381.67747 52.77584 380.2009 52.463062 378.52148 52.283203 C 376.84218 52.103379 375.46875 51.835207 375.46875 51.685547 C 375.46875 51.154688 380.29076 42.398012 381.4082 40.900391 C 382.37598 39.603406 382.52327 38.946172 382.4043 36.447266 L 382.26562 33.515625 L 371.01562 30.626953 C 364.82813 29.038137 359.27923 27.719801 358.68555 27.697266 C 357.93932 27.668789 356.80271 28.523922 355.00391 30.466797 C 353.57291 32.012441 352.22374 33.165176 352.00391 33.029297 C 351.78411 32.893453 351.3565 31.528359 351.05469 29.994141 C 350.75284 28.459922 350.26813 27.012559 349.97852 26.779297 C 349.48355 26.38059 316.66627 25.298715 305.375 25.308594 z M 305.7168 26.236328 C 314.68817 26.17681 347.79233 27.011082 348.16602 27.384766 C 348.57303 27.79178 348.75144 27.72202 338.20312 31.326172 C 332.78906 33.176052 328.04297 34.668594 327.65625 34.642578 C 327.26953 34.616555 321.89062 32.946006 315.70312 30.931641 C 309.51563 28.917272 304.03125 27.135403 303.51562 26.970703 L 302.57812 26.669922 L 303.51562 26.320312 C 303.64645 26.271324 304.43517 26.244831 305.7168 26.236328 z M 286.64062 26.726562 C 288.66287 26.756136 288.154 26.986113 274.92188 32.023438 C 268.47656 34.477098 262.8824 36.612367 262.49023 36.767578 C 261.60672 37.11726 251.91977 31.476483 252.48828 30.943359 C 252.90675 30.550942 284.17265 26.690475 286.64062 26.726562 z M 360.72656 29.058594 C 362.05905 29.047843 380.95659 33.954192 381.48242 34.447266 C 381.92901 34.86604 382.01434 35.648867 381.78125 37.203125 C 381.54226 38.796863 381.25237 39.363074 380.68945 39.332031 C 380.26758 39.308775 375.76383 37.252135 370.68164 34.761719 C 362.24484 30.627442 359.52274 29.068297 360.72656 29.058594 z M 312.39453 49.5625 C 313.87244 49.565678 314.93509 49.587688 315.44531 49.630859 C 317.00929 49.763191 314.58644 50.806536 301.64062 55.578125 C 294.16406 58.333848 287.73047 60.662739 287.34375 60.753906 C 286.58463 60.932866 266.57308 52.541834 265.7168 51.685547 C 265.33861 51.307361 265.75233 51.098879 267.24805 50.914062 C 271.3493 50.407294 302.04917 49.540257 312.39453 49.5625 z M 341.74219 50.15625 C 346.48338 50.157168 374.22881 52.438515 379.39062 53.251953 C 381.14211 53.527961 381.17325 53.565869 380.32812 54.365234 C 379.84733 54.819995 377.04944 56.80079 374.11133 58.767578 C 371.17318 60.73437 368.64193 62.334535 368.48633 62.322266 C 367.80117 62.268164 340.03233 50.974898 339.63281 50.587891 C 339.35991 50.32354 340.17659 50.155951 341.74219 50.15625 z M 246.2793 53.537109 C 246.81816 53.618106 242.84959 56.063425 236.36133 59.648438 C 230.41223 62.935547 225.39612 65.625 225.21289 65.625 C 224.67705 65.625 225.47737 58.882728 226.08594 58.271484 C 226.73996 57.614583 244.97069 53.340417 246.2793 53.537109 z M 325.28711 78.666016 C 332.07832 78.680004 339.34938 78.802021 345.23438 79.046875 C 353.48438 79.390127 360.41016 79.675012 360.625 79.679688 C 362.09555 79.711205 359.16679 81.357715 348.11523 86.712891 C 341.19167 90.067795 335.39088 92.796855 335.22461 92.777344 C 334.12179 92.648173 303.98438 79.754728 303.98438 79.412109 C 303.98438 78.916953 313.96842 78.642701 325.28711 78.666016 z M 262.44727 79.767578 C 266.38457 79.722116 269.07618 79.808877 268.82812 80.074219 C 268.57031 80.350002 262.34766 83.249109 255 86.517578 C 247.65234 89.786051 240.73472 92.852634 239.62695 93.332031 L 237.61328 94.205078 L 232.5957 89.585938 C 226.65369 84.117109 225.67817 83.071828 226.11523 82.634766 C 226.29579 82.454214 227.96534 82.149114 229.82422 81.957031 C 231.6831 81.764952 236.36719 81.277003 240.23438 80.873047 C 245.86394 80.284997 255.88509 79.843349 262.44727 79.767578 z M 388.94531 81.640625 C 389.55058 81.605882 390.63422 81.657033 392.34375 81.783203 C 396.13187 82.06279 407.90677 83.767519 412.14844 84.650391 L 413.4375 84.917969 L 413.4375 89.529297 C 413.4375 92.065852 413.30882 94.475011 413.15234 94.882812 C 412.99586 95.290621 412.7322 95.621863 412.56641 95.617188 C 412.05302 95.602833 388.96911 82.595442 388.41406 82.007812 C 388.21309 81.795047 388.34004 81.675368 388.94531 81.640625 z M 282.44922 111.08203 C 286.66122 111.04671 290.88879 111.1559 297.33789 111.39258 C 310.88273 111.88966 313.22273 112.08978 312.61719 112.69531 C 312.50969 112.80281 304.64555 116.38875 295.14258 120.66406 C 285.6396 124.93938 277.41492 128.41826 276.86328 128.39453 C 275.63108 128.34152 250.6967 113.90226 250.42773 113.08594 C 250.3051 112.71373 250.71883 112.48826 251.5625 112.46875 C 252.29297 112.45188 259.53516 112.08055 267.65625 111.64258 C 274.04046 111.29828 278.23721 111.11735 282.44922 111.08203 z M 375.2168 111.67773 C 380.77878 111.63061 385.09393 111.7958 390.70312 112.22461 C 403.62596 113.21254 406.40625 113.50488 406.40625 113.87305 C 406.40625 114.04129 403.06899 117.4929 398.99023 121.54297 C 394.91151 125.59302 391.3783 128.89367 391.13867 128.87891 C 390.46508 128.83741 357.59321 113.56197 357.08594 113.05469 C 356.83939 112.80812 356.81506 112.49616 357.0332 112.36133 C 357.25138 112.2265 362.70155 111.97175 369.14453 111.79492 C 371.36959 111.73385 373.3628 111.69344 375.2168 111.67773 z M 211.50586 113.12109 C 212.26162 113.12735 212.9751 113.16408 213.69141 113.22656 C 215.78622 113.40929 217.5 113.71165 217.5 113.89844 C 217.5 114.08523 212.11534 117.53844 205.5332 121.57227 C 198.95107 125.6061 193.33398 128.90625 193.05078 128.90625 C 192.70412 128.90625 192.62686 128.02551 192.81445 126.21094 C 192.96771 124.72851 193.23157 121.77896 193.40234 119.65625 C 193.57312 117.53354 193.95089 115.61516 194.24023 115.39258 C 194.52958 115.17 198.16708 114.51705 202.32422 113.94141 C 206.58871 113.3509 209.23857 113.10233 211.50586 113.12109 z M 426.38477 148.24609 C 428.06688 148.203 430.22511 148.37468 434.44727 148.7207 C 439.15954 149.10689 443.14208 149.54831 443.29688 149.70312 C 443.4517 149.85794 443.36224 153.69513 443.09766 158.23047 C 442.83307 162.76581 442.43249 166.65748 442.20703 166.87695 C 441.97848 167.09949 437.33342 164.54222 431.70508 161.09766 C 415.22365 151.01102 415.04148 150.88998 415.80078 150.47461 C 416.1766 150.26903 418.5978 149.63367 421.18164 149.06055 C 423.49675 148.54704 424.70265 148.28919 426.38477 148.24609 z M 226.23047 148.73242 C 229.64053 148.70705 232.41245 148.98954 239.01953 149.71875 C 249.31893 150.85547 250.77328 151.10172 250.26367 151.61133 C 250.15132 151.72368 242.15749 155.73149 232.49805 160.51758 C 222.83861 165.30366 214.70513 169.21875 214.42383 169.21875 C 213.80433 169.21875 199.92188 151.57634 199.92188 150.78906 C 199.92188 150.20663 200.59172 150.14614 218.4375 149.08203 C 221.90906 148.87503 224.18443 148.74765 226.23047 148.73242 z M 339.14062 148.97852 L 355.82227 149.95703 C 364.99755 150.49596 372.74951 150.9375 373.04883 150.9375 C 374.96344 150.9375 371.85574 153.15318 358.41406 161.36719 C 350.08166 166.45898 342.86225 170.61312 342.37305 170.59766 C 341.5133 170.57051 305.35031 152.68111 304.50195 151.86328 C 303.82442 151.21012 305.4535 151.04101 322.73438 149.98242 L 339.14062 148.97852 z M 173.48828 186.09375 L 181.96094 186.09375 L 186.15625 188.26172 C 188.46397 189.45361 190.27402 190.6665 190.17773 190.95703 C 190.08146 191.24756 184.43025 195.11875 177.61914 199.56055 C 170.80803 204.00234 165.11133 207.641 164.96094 207.64648 C 164.81054 207.65195 164.56048 207.52924 164.40625 207.375 C 164.09916 207.06791 164.45624 188.85239 164.80273 187.14844 C 165.01562 186.10148 165.07928 186.09375 173.48828 186.09375 z M 399.14062 189.76562 L 413.67188 190.30469 C 428.92498 190.87037 430.3125 190.98825 430.3125 191.7207 C 430.3125 192.14595 422.34884 202.20668 415.19531 210.82031 C 413.42889 212.94727 411.73132 214.68436 411.42188 214.67969 C 410.7988 214.67058 373.15045 195.61997 372.45312 194.96094 C 372.21255 194.73353 372.10657 194.45592 372.21875 194.34375 C 372.3309 194.23159 378.43402 193.15404 385.78125 191.95117 L 399.14062 189.76562 z M 273.04688 191.39258 L 291.0625 193.1875 C 300.97065 194.17458 309.26889 195.17514 309.50391 195.41016 C 309.76114 195.66739 306.13504 197.7991 300.39453 200.76562 C 295.14981 203.47595 285.71836 208.34879 279.43555 211.5957 C 273.15273 214.84261 267.77383 217.48214 267.48242 217.46094 C 266.77816 217.40969 235.12265 194.65973 234.92188 194.06055 C 234.83594 193.80407 234.83594 193.58439 234.92188 193.57227 C 235.00781 193.56011 243.62109 193.06365 254.0625 192.4707 L 273.04688 191.39258 z M 466.15039 228.27734 C 467.74759 228.26905 468.59069 228.34646 468.71484 228.50781 C 469.05009 228.94353 467.12554 252.59095 466.64453 253.94531 C 466.53006 254.26758 466.27179 254.52375 466.07031 254.51562 C 465.39215 254.48825 438.5912 237.41421 438.41992 236.90039 C 438.32672 236.62076 440.84118 234.74795 444.00781 232.73828 L 449.76562 229.08398 L 459.05664 228.55859 C 462.20156 228.38028 464.55319 228.28563 466.15039 228.27734 z M 192.80078 234.85742 L 208.82812 234.87109 L 221.48438 238.25586 C 229.81125 240.48282 234.14062 241.84954 234.14062 242.25 C 234.14062 242.58477 225.38672 247.37565 214.6875 252.89648 C 203.98828 258.41732 195.10848 262.94157 194.95508 262.95117 C 194.40022 262.98599 193.08796 261.11688 184.77148 248.45508 C 180.1214 241.37535 176.41916 235.41636 176.54492 235.21289 C 176.67068 235.00941 183.98592 234.84993 192.80078 234.85742 z M 343.82812 239.45312 L 363.51562 240.68164 C 384.62523 242.00003 386.38894 242.16785 386.16211 242.82422 C 386.08111 243.05863 377.68357 249.26802 367.5 256.62305 C 357.31639 263.97808 348.66797 269.97339 348.28125 269.94727 C 347.6517 269.90474 307.38687 247.39113 304.63867 245.54492 C 304.02114 245.13007 303.63783 244.66184 303.78711 244.50586 C 303.93639 244.34988 313.0067 243.14971 323.94336 241.83789 L 343.82812 239.45312 z M 142.33789 270.33398 C 142.63244 270.15195 157.30619 272.64793 159.63086 273.27539 C 159.96982 273.36688 169.21875 284.12125 169.21875 284.42383 C 169.21875 284.66624 163.52847 288.48016 156.57422 292.90039 C 149.61996 297.32061 143.72585 300.9375 143.47656 300.9375 C 143.22728 300.9375 142.92697 300.7793 142.80859 300.58594 C 142.36745 299.86531 141.91207 270.59715 142.33789 270.33398 z M 444.74805 285.81641 C 448.05864 285.80033 450.19621 285.83289 450.35938 285.91602 C 450.76272 286.12149 447.4122 291.23902 439.89453 301.89844 C 433.81225 310.52263 428.50274 317.94727 428.0957 318.39844 C 427.68863 318.84961 427.22956 319.21326 427.07617 319.20703 C 426.25788 319.17379 383.67188 296.87932 383.67188 296.48438 C 383.67212 296.22656 390.59095 293.85079 399.04688 291.20508 L 414.42188 286.39453 L 432.09375 286.00391 C 436.95354 285.89639 441.43745 285.83249 444.74805 285.81641 z M 266.48438 291.58984 L 287.54102 295.20898 C 299.12216 297.19929 308.66302 299.03906 308.74219 299.29688 C 308.82136 299.55469 297.95871 305.83008 284.60352 313.24219 C 271.24831 320.6543 260.19034 326.71875 260.03125 326.71875 C 259.66923 326.71875 221.60883 295.32386 221.14258 294.64062 C 220.57872 293.81438 224.10359 293.51197 245.85938 292.52539 L 266.48438 291.58984 z M 486.37109 319.48828 C 486.46438 319.48956 486.52083 319.49905 486.53906 319.51953 C 486.79071 319.80209 482.35967 354.45974 481.91797 355.66406 C 481.89434 355.7285 481.61134 355.76614 481.28906 355.74805 C 480.60826 355.70979 454.53811 340.36502 453.67773 339.49609 C 453.21996 339.0338 453.34395 338.64598 454.28125 337.62109 C 454.93118 336.91041 457.93276 333.5394 460.95117 330.13086 C 465.38297 325.12628 466.77557 323.84389 468.18164 323.4707 C 475.47316 321.53547 484.97186 319.4691 486.37109 319.48828 z M 159.41406 334.21875 C 159.75365 334.21875 167.74116 334.86344 177.16406 335.65039 L 194.29688 337.08008 L 209.51953 343.81641 C 217.89184 347.52138 224.81268 350.76422 224.89844 351.02148 C 224.98419 351.27875 215.41109 356.25114 203.62695 362.07227 C 191.84282 367.8934 181.92771 372.65625 181.5918 372.65625 C 181.25588 372.65625 179.832 370.70508 178.42773 368.32031 C 177.02347 365.93555 172.13498 357.68134 167.56445 349.97656 C 162.99393 342.27178 159.15112 335.57452 159.02539 335.09375 C 158.88776 334.56747 159.04232 334.21875 159.41406 334.21875 z M 349.02148 348.27344 C 351.96131 348.26223 394.55459 351.07313 396.01758 351.375 C 396.952 351.5678 397.02413 351.70951 396.50586 352.33398 C 396.17149 352.73686 386.32798 360.69084 374.63086 370.00977 C 362.93378 379.32869 353.09835 387.10215 352.77344 387.28516 C 352.09211 387.66894 352.12858 387.69084 322.85156 370.22656 C 310.79883 363.03689 300.9375 356.96852 300.9375 356.74023 C 300.9375 356.20938 299.83953 356.42285 325.11523 352.0332 C 336.9955 349.96995 347.75331 348.27826 349.02148 348.27344 z M 128.66016 364.6875 C 129.42164 364.6875 146.15857 372.40228 146.78711 373.04297 C 148.00998 374.28949 158.01702 392.35442 157.73633 392.80859 C 157.59717 393.03376 152.01807 396.18561 145.33789 399.8125 C 138.65771 403.43939 132.86036 406.40625 132.45508 406.40625 C 132.0498 406.40625 131.7157 406.03711 131.71289 405.58594 C 131.7102 405.13477 130.97365 396.53907 130.07422 386.48438 C 128.46556 368.50142 128.21708 364.6875 128.66016 364.6875 z M 463.24609 393.84375 C 464.21851 393.88798 464.01643 394.13375 463.86914 394.51758 C 463.54335 395.36658 438.3751 433.86401 436.56055 436.28906 C 435.93361 437.12696 435.06305 437.79606 434.625 437.77539 C 433.23373 437.70972 387.89062 415.48725 387.89062 414.87109 C 387.89062 414.54665 395.971 410.49066 405.84766 405.85742 L 423.80664 397.43359 L 442.87891 395.59375 C 456.73827 394.25629 461.62539 393.77003 463.24609 393.84375 z M 261.39648 407.62695 L 285.62305 413.4375 C 298.94849 416.63299 310.1136 419.42074 310.43359 419.63281 C 310.87079 419.92255 310.79242 420.18768 310.11719 420.70312 C 309.62296 421.08039 297.36904 428.03842 282.88672 436.16406 C 268.4044 444.28971 256.31561 450.9375 256.02148 450.9375 C 255.52651 450.9375 211.92209 412.15914 210.5625 410.50977 C 210.22771 410.10362 210.12225 409.66732 210.32812 409.54102 C 210.534 409.41471 222.10833 408.93212 236.04883 408.46875 L 261.39648 407.62695 z M 493.47266 419.25391 C 493.63561 419.41686 491.77848 430.14285 489.3457 443.08984 C 485.91146 461.36629 484.76466 466.64998 484.21875 466.72266 C 483.83203 466.77415 482.14454 466.18502 480.46875 465.41211 C 478.79296 464.6392 472.72849 461.88384 466.99219 459.28906 C 461.25585 456.69429 456.5625 454.35833 456.5625 454.09961 C 456.5625 453.84089 459.97023 448.19386 464.13477 441.54883 L 471.70703 429.4668 L 482.44141 424.21094 C 488.34555 421.32095 493.30967 419.09095 493.47266 419.25391 z M 150.46484 443.4375 C 150.7205 443.4375 159.51612 445.02825 170.01172 446.97266 L 189.0957 450.50781 L 206.32617 461.31641 C 215.80314 467.2612 223.79285 472.41134 224.08203 472.75977 C 224.49666 473.25936 224.27882 473.53181 223.04688 474.05273 C 222.18767 474.41601 211.95918 478.75134 200.31641 483.68555 C 188.67363 488.6198 178.85214 492.65625 178.49219 492.65625 C 178.12438 492.65625 173.35548 484.90575 167.60352 474.96094 C 161.97441 465.22851 155.70997 454.3987 153.68359 450.89453 C 150.05553 444.62057 149.54552 443.4375 150.46484 443.4375 z M 127.18555 466.0957 C 127.34254 465.93872 131.85548 469.09578 137.21289 473.11133 L 146.95312 480.41211 L 153.45508 495.42383 C 157.03118 503.68016 159.85294 510.70552 159.72461 511.03711 C 159.59628 511.36875 154.32994 513.27539 148.02344 515.27344 C 141.71694 517.27148 136.22154 518.90625 135.81055 518.90625 C 135.39955 518.90625 134.95647 518.53711 134.82617 518.08594 C 134.23451 516.03726 126.93217 466.34908 127.18555 466.0957 z M 348.51562 468.69336 L 372.42188 470.15039 C 404.59905 472.1093 404.12989 472.06986 403.9668 472.73633 C 403.89093 473.04636 392.4622 482.71808 378.57031 494.22852 C 364.67846 505.73895 352.97143 515.15702 352.55469 515.15234 C 351.4585 515.1455 295.27574 481.75292 295.45508 481.21484 C 295.53782 480.96664 307.51011 478.04746 322.06055 474.72852 L 348.51562 468.69336 z M 466.98047 508.51172 C 467.18448 508.71572 459.49207 520.83259 449.88672 535.43945 C 440.28136 550.04627 432.21093 562.08255 431.95312 562.1875 C 431.39453 562.41484 382.75955 543.25958 382.02148 542.52148 C 381.65371 542.1537 387.13907 538.52402 401.66992 529.52148 C 412.75701 522.65257 422.31313 516.8243 422.90625 516.56836 C 424.76377 515.76684 466.58992 508.12116 466.98047 508.51172 z M 260.73438 531.0332 L 288.8125 539.59766 C 304.25503 544.30803 316.8192 548.36856 316.73438 548.62305 C 316.64954 548.87753 303.20027 556.10569 286.8457 564.68555 C 270.49113 573.26536 256.95105 580.29134 256.75781 580.29883 C 256.47506 580.30952 233.45785 559.4355 208.47656 536.51367 C 206.2207 534.44377 204.375 532.5153 204.375 532.22852 C 204.375 531.85525 212.38395 531.61287 232.55469 531.37109 L 260.73438 531.0332 z "
         id="path5619"
         transform="matrix(2.8444445,0,0,2.8444445,0,-968.41677)" />
    </g>
  </g>
</svg>
